# xmcd
#
# Track frame offsets: 
#        150
#        13747
#        26488
#        45030
#        61031
#        80407
#
# Disc length: 1308 seconds
#
# Revision: 0
# Processed by: cddbd v1.5.2PL0 Copyright (c) Steve Scherf et al.
# Submitted via: ExactAudioCopyFreeDBPlugin 1.0
#
DISCID=35051a06
DTITLE=Sol Ruiz - Outlander
DYEAR=2009
DGENRE=Blues
TTITLE0=Playing it by ear
TTITLE1=Half moon bay
TTITLE2=Belong to you
TTITLE3=Back my way
TTITLE4=Soledad
TTITLE5=Free Love
EXTD=
EXTT0=
EXTT1=
EXTT2=
EXTT3=
EXTT4=
EXTT5=
PLAYORDER=
